<?xml version="1.0" encoding="UTF-8"?>
<svg id="Layer_1" data-name="Layer 1" xmlns="http://www.w3.org/2000/svg" viewBox="0 0 1775.15 2000">
  <defs>
    <style>
      .cls-1 {
        fill: #181818;
      }
    </style>
  </defs>
  <path class="cls-1" d="M535.73,1527.22c19.09-19.09,38.56-17.86,54.18-2.28l462.03,462.03c17.42,17.38,45.61,17.38,63.03,0l646.99-647.01c28.16-28.09,8.26-76.2-31.52-76.2,0,0-351.66,0-509.5-.24-27.8-.04-41.67-33.67-22-53.31l549.77-548.88c16.93-16.89,26.44-39.82,26.44-63.74V44.69c0-39.71-47.99-59.62-76.1-31.57L472.05,1237.45c-16.88,16.84-39.75,26.3-63.6,26.3h-155.34c-4.14,0-8.2.57-12.07,1.66-14.23,4-25.21,15.35-29.75,29.41L2.19,1941.83c-9.28,28.73,12.14,58.17,42.33,58.17h0c11.8,0,23.11-4.69,31.46-13.03l459.75-459.75Z"/>
</svg>