<?xml version="1.0" encoding="UTF-8"?>
<svg id="Layer_1" data-name="Layer 1" xmlns="http://www.w3.org/2000/svg" viewBox="0 0 2794.29 596.6">
  <defs>
    <style>
      .cls-1 {
        fill: #181818;
      }
    </style>
  </defs>
  <g>
    <path class="cls-1" d="M1194.67,159.87h-82.42c-4.64,0-8.8,2.91-10.36,7.27l-86.25,240.08c-5.12,14.26-25.28,14.28-30.43.04l-86.86-240.12c-1.56-4.36-5.72-7.27-10.36-7.27h-82.38c-3.62,0-7.01,1.79-9.07,4.77-2.07,2.98-2.51,6.76-1.22,10.15l155.32,406.8c1.63,4.26,5.72,7.07,10.29,7.07h78.46c4.57,0,8.67-2.81,10.29-7.07l155.32-406.8c1.28-3.38.85-7.17-1.22-10.15-2.06-2.98-5.45-4.77-9.07-4.77h-.03Z"/>
    <path class="cls-1" d="M1610.82,159.87h-81.6c-6.06,0-11.01,4.94-11.01,10.99v244.56c0,39.7-38.43,83.98-93.59,83.98-64,0-92.81-51.88-92.81-88.75v-239.79c0-6.05-4.94-10.99-11.01-10.99h-81.61c-6.06,0-11.01,4.94-11.01,10.99v239.82c0,116.41,68.71,185.91,183.76,185.91,38.7,0,77.85-14.95,109.98-41.57l4.4,24.59c.95,5.24,5.49,9.06,10.83,9.06h73.68c6.06,0,11.01-4.94,11.01-10.99V170.86c0-6.05-4.94-10.99-11.01-10.99h-.04Z"/>
    <path class="cls-1" d="M2464.12,170.9v68.83c0,6.05-4.94,10.99-11.01,10.99h-499.82v190.04c0,46.13,15.91,53.91,51.6,53.91h43.98c2.71,0,5.45.81,7.48,2.57,2.85,2.44,4.27,6.09,3.83,9.77l-9.52,77.55c-.54,4.43-3.72,8.12-8.02,9.27-7.01,1.93-23.8,2.77-54.42,2.77-94.54,0-138.56-49.01-138.56-154.26v-191.63h-69.82c-6.06,0-11.01-4.94-11.01-10.99v-49.04c0-6.02,4.84-10.99,10.83-10.99,60.71.07,90.75-44.03,94.68-106.81.37-5.78,5.15-10.35,10.97-10.35h56.95c6.06,0,11.01,4.94,11.01,10.99v86.38h499.82c6.06,0,11.01,4.94,11.01,10.99Z"/>
    <path class="cls-1" d="M2453.11,285.58h-81.6c-6.06,0-11.01,4.94-11.01,10.99v118.88c0,39.71-38.43,83.98-93.59,83.98-64,0-92.81-51.88-92.81-88.75v-114.12c0-6.05-4.94-10.99-11-10.99h-81.61c-6.06,0-11.01,4.94-11.01,10.99v114.12c0,116.41,68.7,185.91,183.76,185.91,38.7,0,77.85-14.95,109.98-41.57l4.4,24.59c.95,5.24,5.48,9.06,10.83,9.06h73.68c6.06,0,11-4.94,11-10.99v-281.12c0-6.05-4.94-10.99-11-10.99h-.04Z"/>
    <path class="cls-1" d="M2793.28,203.57c-18.05-32.81-51.6-51.61-92.27-51.61-36.47.68-75.03,16.17-106.49,42.24l-4.5-25.26c-.95-5.24-5.49-9.06-10.84-9.06h-73.68c-6.06,0-11.01,4.94-11.01,10.99v406.8c0,6.05,4.94,10.99,11.01,10.99h81.61c6.06,0,11-4.94,11-10.99v-254.84c0-48.9,32.34-74.47,64.27-74.47,19.88,0,40.02,10.55,53.94,28.24,1.96,2.5,4.91,4.03,8.09,4.19h.54c2.98,0,5.86-1.22,7.92-3.38l58.65-60.95c3.35-3.48,4.03-8.69,1.69-12.92l.07.03Z"/>
    <path class="cls-1" d="M1744.58,0h-81.61c-6.08,0-11.01,4.92-11.01,10.99v566.7c0,6.07,4.93,10.99,11.01,10.99h81.61c6.08,0,11.01-4.92,11.01-10.99V10.99c0-6.07-4.93-10.99-11.01-10.99Z"/>
  </g>
  <path class="cls-1" d="M159.81,455.57c5.69-5.69,11.5-5.33,16.16-.68l137.82,137.82c5.2,5.18,13.61,5.18,18.8,0l193-193c8.4-8.38,2.46-22.73-9.4-22.73,0,0-104.9,0-151.98-.07-8.29-.01-12.43-10.04-6.56-15.9l164-163.73c5.05-5.04,7.89-11.88,7.89-19.01V13.33c0-11.85-14.32-17.79-22.7-9.42L140.81,369.13c-5.04,5.02-11.86,7.85-18.97,7.85h-46.34c-1.24,0-2.44.17-3.6.5-4.24,1.19-7.52,4.58-8.88,8.77L.65,579.25c-2.77,8.57,3.62,17.35,12.63,17.35h0c3.52,0,6.89-1.4,9.38-3.89l137.14-137.14Z"/>
</svg>